<svg width="534" height="159" viewBox="0 0 534 159" fill="none" xmlns="http://www.w3.org/2000/svg">
<ellipse opacity="0.5" cx="503.588" cy="126" rx="30.4116" ry="33" transform="rotate(-180 503.588 126)" fill="#FFD7D7"/>
<g filter="url(#filter0_d_35_352)">
<ellipse cx="503.5" cy="126.649" rx="13.5" ry="14.649" transform="rotate(-180 503.5 126.649)" fill="#FF6D6D"/>
<path d="M490.5 126.649C490.5 118.795 496.358 112.5 503.5 112.5C510.642 112.5 516.5 118.795 516.5 126.649C516.5 134.502 510.642 140.798 503.5 140.798C496.358 140.798 490.5 134.502 490.5 126.649Z" stroke="#FF6D6D"/>
</g>
<line x1="493" y1="126" x2="315" y2="126" stroke="#FF6D6D" stroke-width="12" stroke-linecap="round"/>
<path d="M109.793 84.2344V99H66.7266V84.2344H109.793ZM73.2305 13.6875V99H54.1289V13.6875H73.2305ZM139.5 13.6875V99H120.457V13.6875H139.5ZM225.281 13.6875V99H206.238L174.012 43.8633V99H154.91V13.6875H174.012L206.297 68.8242V13.6875H225.281ZM297.41 84.2344V99H252V84.2344H297.41ZM258.504 13.6875V99H239.402V13.6875H258.504ZM291.551 48.0234V62.3203H252V48.0234H291.551ZM297.469 13.6875V28.5117H252V13.6875H297.469ZM383.367 13.6875H402.469V69.7031C402.469 76.3438 401.062 81.9297 398.25 86.4609C395.477 90.9922 391.609 94.4102 386.648 96.7148C381.688 99.0195 375.945 100.172 369.422 100.172C362.859 100.172 357.078 99.0195 352.078 96.7148C347.117 94.4102 343.211 90.9922 340.359 86.4609C337.547 81.9297 336.141 76.3438 336.141 69.7031V13.6875H355.301V69.7031C355.301 73.375 355.848 76.3828 356.941 78.7266C358.074 81.0312 359.695 82.7305 361.805 83.8242C363.914 84.8789 366.453 85.4062 369.422 85.4062C372.391 85.4062 374.91 84.8789 376.98 83.8242C379.09 82.7305 380.672 81.0312 381.727 78.7266C382.82 76.3828 383.367 73.375 383.367 69.7031V13.6875ZM449.754 69.3516H428.309V54.5273H449.754C452.918 54.5273 455.457 54 457.371 52.9453C459.324 51.8906 460.75 50.4453 461.648 48.6094C462.586 46.7344 463.055 44.625 463.055 42.2812C463.055 39.8594 462.586 37.6133 461.648 35.543C460.75 33.4336 459.324 31.7344 457.371 30.4453C455.457 29.1562 452.918 28.5117 449.754 28.5117H435.223V99H416.121V13.6875H449.754C456.551 13.6875 462.371 14.918 467.215 17.3789C472.098 19.8398 475.828 23.2188 478.406 27.5156C481.023 31.7734 482.332 36.6562 482.332 42.1641C482.332 47.6719 481.023 52.457 478.406 56.5195C475.828 60.582 472.098 63.7461 467.215 66.0117C462.371 68.2383 456.551 69.3516 449.754 69.3516Z" fill="#312E26"/>
<defs>
<filter id="filter0_d_35_352" x="486" y="109" width="35" height="37.2979" filterUnits="userSpaceOnUse" color-interpolation-filters="sRGB">
<feFlood flood-opacity="0" result="BackgroundImageFix"/>
<feColorMatrix in="SourceAlpha" type="matrix" values="0 0 0 0 0 0 0 0 0 0 0 0 0 0 0 0 0 0 127 0" result="hardAlpha"/>
<feOffset dy="1"/>
<feGaussianBlur stdDeviation="2"/>
<feComposite in2="hardAlpha" operator="out"/>
<feColorMatrix type="matrix" values="0 0 0 0 0.908333 0 0 0 0 0.387025 0 0 0 0 0.0378472 0 0 0 0.32 0"/>
<feBlend mode="normal" in2="BackgroundImageFix" result="effect1_dropShadow_35_352"/>
<feBlend mode="normal" in="SourceGraphic" in2="effect1_dropShadow_35_352" result="shape"/>
</filter>
</defs>
</svg>
